/* XPM */
static char * close_pressed_xpm[] = {
"20 24 11 1",
" 	c None",
".	c #939393",
"+	c #FFFFFF",
"@	c #DEDEDE s active_color_2",
"#	c #242424",
"$	c #202020",
"%	c #ECECEC",
"&	c #222222",
"*	c #262626",
"=	c #282828",
"-	c #2A2A2A",
"....................",
"++++++++++++++++++++",
"@@@@@@@@@@@@@@@@@@@@",
"@@@@@@@@@@@@@@@@@@@@",
"@@@@@@@@@@@@@@@@@@@@",
"@@@@@@@@@@@@@@@@@@@@",
"@@@@@@@@@@@@@@@@@@@@",
"@@@@@@@@@@@@@@@@@@@@",
"@@@@@@@@@@@@@@@@@@@@",
"@@@@@@##@@@@##@@@@@@",
"@@@@@@$$#@@#$$@@@@@@",
"@@@@@@%$$##$$%@@@@@@",
"@@@@@@@%&&&&%@@@@@@@",
"@@@@@@@@####@@@@@@@@",
"@@@@@@@#****#@@@@@@@",
"@@@@@@#==%%==#@@@@@@",
"@@@@@@--%@@%--@@@@@@",
"@@@@@@%%@@@@%%@@@@@@",
"@@@@@@@@@@@@@@@@@@@@",
"@@@@@@@@@@@@@@@@@@@@",
"@@@@@@@@@@@@@@@@@@@@",
"@@@@@@@@@@@@@@@@@@@@",
"@@@@@@@@@@@@@@@@@@@@",
"@@@@@@@@@@@@@@@@@@@@"};
