/* XPM */
static char * menu_pressed_xpm[] = {
"20 24 23 1",
" 	c None",
".	c #939393",
"+	c #FFFFFF",
"@	c #DEDEDE s active_color_2",
"#	c #292929",
"$	c #212121",
"%	c #EBECED",
"&	c #282828",
"*	c #232323",
"=	c #2A2A2A",
"-	c #DFDFDF",
";	c #3A3A3A",
">	c #272727",
",	c #252525",
"'	c #3B3B3B",
")	c #E1E1E1",
"!	c #373737",
"~	c #393939",
"{	c #E0E0E0",
"]	c #E6E6E6",
"^	c #323232",
"/	c #E2E2E2",
"(	c #EDEDED",
"....................",
"++++++++++++++++++++",
"@@@@@@@@@@@@@@@@@@@@",
"@@@@@@@@@@@@@@@@@@@@",
"@@@@@@@@@@@@@@@@@@@@",
"@@@@@@@@@@@@@@@@@@@@",
"@@@@@@@@@@@@@@@@@@@@",
"@@@@@@@@@@@@@@@@@@@@",
"@@@@@@@@@@@@@@@@@@@@",
"@@@@@@@@@@@@@@@@@@@@",
"@@@@@@@@@@@@@@@@@@@@",
"@@@@@@#$$$$$$#@@@@@@",
"@@@@@@%&****=%@@@@@@",
"@@@@@@-;>,,#'@@@@@@@",
"@@@@@@@)!>&~{@@@@@@@",
"@@@@@@@@]^!/@@@@@@@@",
"@@@@@@@@@(]@@@@@@@@@",
"@@@@@@@@@@@@@@@@@@@@",
"@@@@@@@@@@@@@@@@@@@@",
"@@@@@@@@@@@@@@@@@@@@",
"@@@@@@@@@@@@@@@@@@@@",
"@@@@@@@@@@@@@@@@@@@@",
"@@@@@@@@@@@@@@@@@@@@",
"@@@@@@@@@@@@@@@@@@@@"};
