/* XPM */
static char * shade_toggled_pressed_xpm[] = {
"20 24 18 1",
" 	c None",
".	c #8D8D8D",
"+	c #FFFFFF",
"@	c #DEDEDE s active_color_2",
"#	c #2A2A2A",
"$	c #252525",
"%	c #292929",
"&	c #212121",
"*	c #EBECED",
"=	c #282828",
"-	c #232323",
";	c #393939",
">	c #262626",
",	c #E8EBEE",
"'	c #373737",
")	c #272727",
"!	c #DFDFDF",
"~	c #323232",
"....................",
"++++++++++++++++++++",
"@@@@@@@@@@@@@@@@@@@@",
"@@@@@@@@@@@@@@@@@@@@",
"@@@@@@@@@@@@@@@@@@@@",
"@@@@@@@@@@@@@@@@@@@@",
"@@@@@@@@@@@@@@@@@@@@",
"@@@@@@@@@@@@@@@@@@@@",
"@@@@@@@@@@@@@@@@@@@@",
"@@@@@@@@@##@@@@@@@@@",
"@@@@@@@@@$$@@@@@@@@@",
"@@@@@@@@@$$@@@@@@@@@",
"@@@@@@@@@$$@@@@@@@@@",
"@@@@@@%&%$$%&%@@@@@@",
"@@@@@@*=-$$-#*@@@@@@",
"@@@@@@@;>$$=,@@@@@@@",
"@@@@@@@@')=;!@@@@@@@",
"@@@@@@@@@~'@@@@@@@@@",
"@@@@@@@@@@@@@@@@@@@@",
"@@@@@@@@@@@@@@@@@@@@",
"@@@@@@@@@@@@@@@@@@@@",
"@@@@@@@@@@@@@@@@@@@@",
"@@@@@@@@@@@@@@@@@@@@",
"@@@@@@@@@@@@@@@@@@@@"};
