/* XPM */
static char * shade_pressed_xpm[] = {
"20 24 17 1",
" 	c None",
".	c #8D8D8D",
"+	c #FFFFFF",
"@	c #DEDEDE s active_color_2",
"#	c #272727",
"$	c #282828",
"%	c #262626",
"&	c #242424",
"*	c #222222",
"=	c #252525",
"-	c #292929",
";	c #202020",
">	c #EAEBEC",
",	c #393939",
"'	c #E9EBED",
")	c #2C2C2C",
"!	c #2D2D2D",
"....................",
"++++++++++++++++++++",
"@@@@@@@@@@@@@@@@@@@@",
"@@@@@@@@@@@@@@@@@@@@",
"@@@@@@@@@@@@@@@@@@@@",
"@@@@@@@@@@@@@@@@@@@@",
"@@@@@@@@@@@@@@@@@@@@",
"@@@@@@@@@@@@@@@@@@@@",
"@@@@@@@@@@@@@@@@@@@@",
"@@@@@@@@@#$@@@@@@@@@",
"@@@@@@@@%&&$@@@@@@@@",
"@@@@@@@#*&=*-@@@@@@@",
"@@@@@@$;-&&-;-@@@@@@",
"@@@@@@>,'&&''>@@@@@@",
"@@@@@@@@@##@@@@@@@@@",
"@@@@@@@@@))@@@@@@@@@",
"@@@@@@@@@!!@@@@@@@@@",
"@@@@@@@@@''@@@@@@@@@",
"@@@@@@@@@@@@@@@@@@@@",
"@@@@@@@@@@@@@@@@@@@@",
"@@@@@@@@@@@@@@@@@@@@",
"@@@@@@@@@@@@@@@@@@@@",
"@@@@@@@@@@@@@@@@@@@@",
"@@@@@@@@@@@@@@@@@@@@"};
