/* XPM */
static char * stick_toggled_pressed_xpm[] = {
"20 24 14 1",
" 	c None",
".	c #8D8D8D",
"+	c #FFFFFF",
"@	c #DEDEDE s active_color_2",
"#	c #202020",
"$	c #212121",
"%	c #222222",
"&	c #ECECEC",
"*	c #242424",
"=	c #262626",
"-	c #282828",
";	c #292929",
">	c #2A2A2A",
",	c #2B2B2B",
"....................",
"++++++++++++++++++++",
"@@@@@@@@@@@@@@@@@@@@",
"@@@@@@@@@@@@@@@@@@@@",
"@@@@@@@@@@@@@@@@@@@@",
"@@@@@@@@@@@@@@@@@@@@",
"@@@@@@@@@@@@@@@@@@@@",
"@@@@@@@@@@@@@@@@@@@@",
"@@@@@@@@@@@@#@@@@@@@",
"@@@@@@@@##@@##@@@@@@",
"@@@@@@@$$$@$$$$@@@@@",
"@@@@@@%%&&@%%&&@@@@@",
"@@@@@@**@@*&&@@@@@@@",
"@@@@@@==@@&@==@@@@@@",
"@@@@@@--@@@@--@@@@@@",
"@@@@@@&;>>>>>&@@@@@@",
"@@@@@@@&,,,,&@@@@@@@",
"@@@@@@@@&&&&@@@@@@@@",
"@@@@@@@@@@@@@@@@@@@@",
"@@@@@@@@@@@@@@@@@@@@",
"@@@@@@@@@@@@@@@@@@@@",
"@@@@@@@@@@@@@@@@@@@@",
"@@@@@@@@@@@@@@@@@@@@",
"@@@@@@@@@@@@@@@@@@@@"};
